<svg width="36px" height="36px" viewBox="0 0 36 36" version="1.1">
  <title>logo</title>
  <desc>Created with Sketch.</desc>
  <g id="后台管理" stroke="none" strokeWidth="1" fill="none" fillRule="evenodd">
    <g id="居住统计2" transform="translate(-22.000000, -21.000000)" fill="#FFFFFF" fillRule="nonzero">
      <g id="编组" transform="translate(22.000000, 20.000000)">
        <path
          d="M34.4892609,11.4477615 C39.1702768,17.9293398 31.8752395,26.0878852 27.5050802,30.4096109 C25.8942778,32.0017193 24.2067705,33.51301 22.5818383,35.0748118 C20.8842383,36.6992473 17.4991935,37.6682413 15.3797167,36.4559761 C13.9104739,35.6156214 12.6970647,34.2173261 11.3910633,33.0575924 C11.3466552,33.0131427 10.4201411,32.1483934 10.4524378,32.1059641 C10.7996283,31.7038961 13.9650263,29.8402233 14.4713695,29.4854507 C17.4991935,27.3639864 20.2383025,25.5948973 23.0985869,23.1238966 C24.7416861,21.6853417 26.0315391,19.7639013 27.2527615,17.907115 C28.0238473,16.7251563 28.5607815,15.2461927 27.4848946,13.8621898 C26.6936233,12.8398461 24.3117351,12.565066 22.6968956,13.1974643 C21.3565788,13.7268202 20.5673261,14.9087789 20.0909484,16.2079231 L20.1195344,16.1330365 C20.5955152,16.2251016 21.0387133,16.4897221 21.384248,16.8953498 C21.8198164,17.4066692 22.0645161,18.1001671 22.0645161,18.8232819 C22.0645161,19.3252181 21.7178979,19.7321178 21.2903226,19.7321178 C20.8956377,19.7321178 20.569934,19.3854104 20.5221611,18.9372844 L20.516129,18.8232819 L20.5089032,18.6996802 C20.4534261,18.2263534 20.095223,17.8842723 19.6891665,17.9168381 C19.6830756,17.9173266 19.6770052,17.9178969 19.670956,17.918548 C19.6200804,18.197227 19.5697636,18.4750782 19.5116248,18.7516598 C19.4272943,19.1934631 19.2345103,19.6352664 18.9913983,19.8755688 L18.967,19.895 L18.9677419,23.0645161 L17.4193548,23.0645161 L17.4193548,18.8232819 L17.4245161,18.6366676 C17.4380873,18.4044491 17.476155,18.1806734 17.535634,17.9687221 C17.4551941,17.3273143 17.4652837,16.6572548 17.5193166,16.0927579 C17.8967853,12.5448616 20.7893665,9.46166684 24.7416861,8.36456676 C28.5628,7.28565066 32.3152832,8.43730268 34.4892609,11.4477615 Z M9.68135681,7.00324885 C11.0521251,7.29814076 13.7271763,7.74890406 14.4624243,9.22546989 C14.5428983,9.36332043 14.5830908,9.52402439 14.5777957,9.68676506 C14.5985391,10.0879008 14.3687984,10.457325 14.0506437,10.7290616 C14.6373552,11.17214 15.0402088,11.9137383 15.0916129,12.7737739 L15.0967742,12.9562412 L15.0967742,19.5806452 L13.5483871,19.5806452 L13.5483871,12.9562412 C13.5482623,12.4890726 13.2330191,12.1017829 12.8269626,12.0699407 C12.4209061,12.0380985 12.062703,12.3725778 12.0072258,12.8353863 L12,12.9562412 C12,13.4470233 11.6533817,13.8448808 11.2258065,13.8448808 C10.7982312,13.8448808 10.4516129,13.4470233 10.4516129,12.9562412 C10.4516129,12.2491956 10.6963127,11.5711088 11.131881,11.0711521 C11.2083339,10.9833974 11.289568,10.9023925 11.3748806,10.8284715 C11.2086036,10.781219 11.0426485,10.7417308 10.8780903,10.720993 C9.33328723,10.5461643 7.78261791,11.0179913 7.91363283,13.0316816 C8.13850919,16.444002 10.4068275,19.1296246 12.4189823,21.5498445 C13.2363591,22.5398386 14.2453697,23.2538983 15.0940336,24.1680631 C15.2387367,24.3323601 9.60704981,28.1659546 9.1299208,28.4734848 C7.87256844,29.2549482 6.98675102,28.8147167 6.10484452,27.7573187 C5.08410127,26.5609002 4.08291252,25.2928651 3.19318419,23.9721707 C1.77352978,21.8615873 0.66088051,19.4834949 0.177885159,16.9305737 C-1.01689288,10.6683338 3.9910065,5.74785193 9.68135681,7.00324885 Z M11.9032258,1 C13.3462924,1 14.516129,2.29981847 14.516129,3.90322581 C14.516129,5.50663314 13.3462924,6.80645161 11.9032258,6.80645161 C10.4601592,6.80645161 9.29032258,5.50663314 9.29032258,3.90322581 C9.29032258,2.29981847 10.4601592,1 11.9032258,1 Z M24.0967742,1 C25.5398408,1 26.7096774,2.29981847 26.7096774,3.90322581 C26.7096774,5.50663314 25.5398408,6.80645161 24.0967742,6.80645161 C22.6537076,6.80645161 21.483871,5.50663314 21.483871,3.90322581 C21.483871,2.29981847 22.6537076,1 24.0967742,1 Z"
          id="logo"></path>
      </g>
    </g>
  </g>
</svg>