<?xml version="1.0" encoding="UTF-8"?>
<svg width="172px" height="58px" viewBox="0 0 172 58" version="1.1" xmlns="http://www.w3.org/2000/svg"
  xmlns:xlink="http://www.w3.org/1999/xlink">
  <!-- Generator: Sketch 60.1 (88133) - https://sketch.com -->
  <title>houtai-logo</title>
  <desc>Created with Sketch.</desc>
  <defs>
    <filter x="-9.3%" y="-27.6%" width="118.6%" height="155.2%" filterUnits="objectBoundingBox" id="filter-1">
      <feOffset dx="0" dy="2" in="SourceAlpha" result="shadowOffsetOuter1"></feOffset>
      <feGaussianBlur stdDeviation="3" in="shadowOffsetOuter1" result="shadowBlurOuter1"></feGaussianBlur>
      <feColorMatrix values="0 0 0 0 1   0 0 0 0 0   0 0 0 0 0  0 0 0 0.423951049 0" type="matrix" in="shadowBlurOuter1"
        result="shadowMatrixOuter1"></feColorMatrix>
      <feMerge>
        <feMergeNode in="shadowMatrixOuter1"></feMergeNode>
        <feMergeNode in="SourceGraphic"></feMergeNode>
      </feMerge>
    </filter>
    <radialGradient cx="50%" cy="21.3637681%" fx="50%" fy="21.3637681%" r="83.7935837%" id="radialGradient-2">
      <stop stop-color="#FFFFFF" offset="0%"></stop>
      <stop stop-color="#FFD508" offset="100%"></stop>
    </radialGradient>
    <path
      d="M89.006917,10.3711997 C88.4505369,9.12438706 87.6551285,8.00555736 86.6425353,7.04593006 C85.6339988,6.08973522 84.4597651,5.33932659 83.1532235,4.81546257 C81.8036193,4.27443611 80.3703865,4 78.8937791,4 C77.4171718,4 75.983939,4.27443608 74.6343348,4.81546257 C73.3279492,5.33932659 72.1535595,6.09038902 71.1450229,7.04593006 C70.1325858,8.00555739 69.3371775,9.12438706 68.7807973,10.3711997 C68.2061779,11.6504957 67.9087161,13.0470841 67.909715,14.460935 C67.909715,17.3952272 69.1923876,20.1711344 71.4459925,22.1507029 C70.7282839,23.1355018 69.6924432,24.0282772 68.1521782,24.9964041 C67.9597498,25.1173544 67.8679917,25.3579403 67.92788,25.5845045 C67.9877683,25.8110686 68.1845868,25.9679634 68.408993,25.9679634 C69.929131,25.9679634 71.3266344,25.8095783 72.5628094,25.4970579 C73.6165928,25.2307944 74.5574152,24.8519124 75.3637451,24.3692383 C76.5074181,24.7373662 77.6973407,24.9236501 78.8937791,24.9218699 C80.3703865,24.9218699 81.8036193,24.6474338 83.1532235,24.1064073 C84.4596091,23.5833606 85.6339988,22.8314809 86.6423793,21.8759398 C87.6549725,20.9163125 88.4503808,19.7974828 89.006761,18.5506702 C90.1679842,15.9598763 90.1679842,12.9619936 89.006761,10.3711997 L89.006917,10.3711997 Z"
      id="path-3"></path>
    <filter x="-4.6%" y="-4.6%" width="109.1%" height="109.1%" filterUnits="objectBoundingBox" id="filter-4">
      <feGaussianBlur stdDeviation="1" in="SourceAlpha" result="shadowBlurInner1"></feGaussianBlur>
      <feOffset dx="0" dy="0" in="shadowBlurInner1" result="shadowOffsetInner1"></feOffset>
      <feComposite in="shadowOffsetInner1" in2="SourceAlpha" operator="arithmetic" k2="-1" k3="1"
        result="shadowInnerInner1"></feComposite>
      <feColorMatrix values="0 0 0 0 0   0 0 0 0 0   0 0 0 0 0  0 0 0 0.3 0" type="matrix" in="shadowInnerInner1">
      </feColorMatrix>
    </filter>
  </defs>
  <g id="页面-1" stroke="none" stroke-width="1" fill="none" fill-rule="evenodd">
    <g id="百米享购后台logo" transform="translate(-12.000000, -3.000000)">
      <g id="houtai-logo" filter="url(#filter-1)" transform="translate(12.000000, 3.000000)">
        <path
          d="M138.806324,24.104015 C139.854137,24.104015 140.703557,24.9534352 140.703557,26.0012482 L140.703507,39.3584023 L144.859611,46.5564829 C145.364114,47.4303069 145.094494,48.5386417 144.263535,49.087366 L144.165176,49.1481516 C143.291352,49.6526542 142.183017,49.3830339 141.634293,48.552075 L141.573507,48.4537161 L138.756313,43.5740545 L135.939287,48.4537161 C135.41538,49.3611487 134.255051,49.6720581 133.347618,49.1481516 C132.440185,48.6242451 132.129276,47.4639155 132.653183,46.5564829 L136.90904,39.1844893 L136.909091,26.0012482 C136.909091,24.9534352 137.758511,24.104015 138.806324,24.104015 Z M115.407115,22.8391928 C118.148562,22.8391928 120.380739,25.0196436 120.463996,27.7408976 L120.466403,27.8984814 L120.466403,29.1633035 C120.466403,30.2111165 119.616983,31.0605367 118.56917,31.0605367 C117.521357,31.0605367 116.671937,30.2111165 116.671937,29.1633035 L116.671937,27.8984814 C116.671937,27.2316913 116.155967,26.6854125 115.50151,26.6371285 L115.407115,26.6336592 L100.229249,26.6336592 C99.530707,26.6336592 98.9644269,27.1999394 98.9644269,27.8984814 C98.9644269,28.5652714 99.480397,29.1115502 100.134854,29.1598343 L100.229249,29.1633035 L112.245059,29.1633035 C113.292872,29.1633035 114.142292,30.0127238 114.142292,31.0605367 C114.142292,31.1766118 114.131869,31.2902522 114.111906,31.400573 C114.189444,31.8267881 114.121888,32.2820561 113.888111,32.6869695 L111.906087,36.1193799 L122.363636,36.1198253 C123.411449,36.1198253 124.26087,36.9692455 124.26087,38.0170585 C124.26087,39.0648714 123.411449,39.9142917 122.363636,39.9142917 L110.980237,39.9138463 L110.980237,47.5032245 C110.980237,48.5136155 110.190406,49.3395317 109.194481,49.397237 L109.083004,49.4004577 L102.758893,49.4004577 C101.71108,49.4004577 100.86166,48.5510374 100.86166,47.5032245 C100.86166,46.4554115 101.71108,45.6059913 102.758893,45.6059913 L107.185771,45.6055459 L107.185771,39.9138463 L93.2727273,39.9142917 C92.2249143,39.9142917 91.3754941,39.0648714 91.3754941,38.0170585 C91.3754941,36.9692455 92.2249143,36.1198253 93.2727273,36.1198253 L107.582397,36.1195091 C107.623836,35.9825523 107.681527,35.8481566 107.756157,35.7188927 L109.349249,32.9577699 L100.229249,32.9577699 C97.4350811,32.9577699 95.1699605,30.6926493 95.1699605,27.8984814 C95.1699605,25.1043135 97.4350811,22.8391928 100.229249,22.8391928 L115.407115,22.8391928 Z M156.83004,15.25026 C161.894469,15.25026 166,19.3557912 166,24.4202205 L166,40.2304972 C166,45.2949265 161.894469,49.4004577 156.83004,49.4004577 L156.61011,49.397872 L156.513834,49.4004577 C155.466021,49.4004577 154.616601,48.5510374 154.616601,47.5032245 C154.616601,46.4928334 155.406432,45.6669172 156.402357,45.6092119 L156.513834,45.6059913 L156.514166,45.5968647 C156.618684,45.6029211 156.724003,45.6059913 156.83004,45.6059913 C159.744865,45.6059913 162.117832,43.286021 162.203158,40.3918634 L162.205534,40.2304972 L162.205534,24.4202205 C162.205534,21.4514171 159.798843,19.0447264 156.83004,19.0447264 C153.915214,19.0447264 151.542247,21.3646967 151.456921,24.2588543 L151.454545,24.4202205 L151.454545,25.3688371 L151.447222,25.3692228 C151.362261,26.3384151 150.548562,27.0986038 149.557312,27.0986038 C148.566062,27.0986038 147.752364,26.3384151 147.667402,25.3692228 L147.660079,25.3688371 L147.660079,24.4202205 C147.660079,19.3557912 151.76561,15.25026 156.83004,15.25026 Z M64.0153942,15.0484663 C65.0632072,15.0484663 65.9126274,15.8978865 65.9126274,16.9456995 L65.9126274,28.8615888 L79.1932598,28.8616554 C80.2410728,28.8616554 81.090493,29.7110756 81.090493,30.7588886 C81.090493,31.8067015 80.2410728,32.6561218 79.1932598,32.6561218 L69.154999,32.6560552 L76.2670938,44.9735255 L79.3596838,44.9735802 C80.4074968,44.9735802 81.256917,45.8230004 81.256917,46.8708134 C81.256917,47.9186264 80.4074968,48.7680466 79.3596838,48.7680466 L75.5652174,48.7680466 C75.4341287,48.7680466 75.3061453,48.7547517 75.1825418,48.7294367 C74.5574889,48.7398776 73.9447977,48.4405005 73.5764485,47.8934607 L73.5061053,47.780769 L65.911995,34.6279129 L65.9126274,47.3014307 C65.9126274,48.3492437 65.0632072,49.1986639 64.0153942,49.1986639 C62.9675813,49.1986639 62.118161,48.3492437 62.118161,47.3014307 L62.1175286,34.7442765 L54.5912527,47.780769 C54.3139041,48.2611508 53.8581984,48.5743575 53.3560752,48.685036 C53.1798614,48.7388909 52.992545,48.7680466 52.798419,48.7680466 L49.0039526,48.7680466 C47.9561396,48.7680466 47.1067194,47.9186264 47.1067194,46.8708134 C47.1067194,45.8230004 47.9561396,44.9735802 49.0039526,44.9735802 L51.8294654,44.9735255 L58.9415602,32.6560552 L48.8375286,32.6561218 C47.7897156,32.6561218 46.9402954,31.8067015 46.9402954,30.7588886 C46.9402954,29.7110756 47.7897156,28.8616554 48.8375286,28.8616554 L62.118161,28.8615888 L62.118161,16.9456995 C62.118161,15.8978865 62.9675813,15.0484663 64.0153942,15.0484663 Z M29.3992095,24.736426 C34.9875453,24.736426 39.5177866,29.2666673 39.5177866,34.8550031 L39.5177866,38.6494695 C39.5177866,44.2378053 34.9875453,48.7680466 29.3992095,48.7680466 L16.7509881,48.7680466 C11.1626523,48.7680466 6.63241107,44.2378053 6.63241107,38.6494695 L6.63241107,34.8550031 C6.63241107,29.2666673 11.1626523,24.736426 16.7509881,24.736426 L29.3992095,24.736426 Z M29.3992095,28.5308924 L16.7509881,28.5308924 C13.3174767,28.5308924 10.5230471,31.2671269 10.4293071,34.6779882 L10.4268775,34.8550031 L26.2371542,34.8550031 C27.2849671,34.8550031 28.1343874,35.7044234 28.1343874,36.7522363 C28.1343874,37.8000493 27.2849671,38.6494695 26.2371542,38.6494695 L10.4268775,38.6494695 C10.4268775,42.0829809 13.163112,44.8774105 16.5739732,44.9711506 L16.7509881,44.9735802 L29.3992095,44.9735802 C32.8327209,44.9735802 35.6271505,42.2373457 35.7208906,38.8264844 L35.7233202,38.6494695 L35.7233202,34.8550031 C35.7233202,31.4214917 32.9870857,28.6270621 29.5762244,28.533322 L29.3992095,28.5308924 Z M156.996463,24.0727407 C157.903896,24.5966472 158.214806,25.7569768 157.690899,26.6644095 L152.719368,35.2743694 L152.719368,37.0684419 C152.719368,38.2908903 153.710358,39.2818806 154.932806,39.2818806 C156.114507,39.2818806 157.079922,38.3558552 157.14297,37.189887 L157.146245,37.0684419 L157.146245,34.8550031 L157.149466,34.7435263 C157.207171,33.7476007 158.033087,32.9577699 159.043478,32.9577699 C160.053869,32.9577699 160.879786,33.7476007 160.937491,34.7435263 L160.940711,34.8550031 L160.940711,37.0684419 C160.940711,40.3865162 158.250881,43.076347 154.932806,43.076347 C151.614732,43.076347 148.924901,40.3865162 148.924901,37.0684419 L148.924901,34.8550031 L148.928122,34.7435263 C148.945731,34.4396053 149.034881,34.154877 149.178981,33.9059302 C149.220187,33.7776299 149.275365,33.651609 149.345506,33.5301211 L154.404795,24.7671763 C154.928701,23.8597436 156.089031,23.5488343 156.996463,24.0727407 Z M138.806324,15.25026 C142.648305,15.25026 145.762846,18.3648009 145.762846,22.2067818 L145.762846,38.0170585 C145.762846,39.0648714 144.913426,39.9142917 143.865613,39.9142917 C142.855222,39.9142917 142.029305,39.1244609 141.9716,38.1285353 L141.968379,38.0170585 L141.968379,22.2067818 C141.968379,20.4604268 140.552679,19.0447264 138.806324,19.0447264 C137.105926,19.0447264 135.719008,20.3868967 135.64719,22.0696184 L135.644269,22.2067818 L135.644269,38.0170585 C135.644269,39.0648714 134.794849,39.9142917 133.747036,39.9142917 C132.736645,39.9142917 131.910728,39.1244609 131.853023,38.1285353 L131.849802,38.0170585 L131.849802,22.2067818 C131.849802,18.3648009 134.964343,15.25026 138.806324,15.25026 Z M54.0420176,17.0735368 L54.1252656,17.205148 L57.919732,23.7773566 C58.4436385,24.6847892 58.1327291,25.8451188 57.2252964,26.3690253 C56.3632354,26.8667365 55.2729349,26.6110263 54.7168757,25.8062009 L54.6336277,25.6745898 L50.8391613,19.1023812 C50.3152548,18.1949485 50.6261642,17.0346189 51.5335968,16.5107124 C52.3956579,16.0130013 53.4859584,16.2687114 54.0420176,17.0735368 Z M38.2529644,15.25026 C39.3007774,15.25026 40.1501976,16.0996803 40.1501976,17.1474932 C40.1501976,18.1953062 39.3007774,19.0447264 38.2529644,19.0447264 L25.029249,19.0447264 L22.7961075,22.9134632 C22.272201,23.8208959 21.1118714,24.1318052 20.2044388,23.6078988 C19.2970061,23.0839923 18.9860967,21.9236626 19.5100032,21.01623 L20.6479051,19.0447264 L7.8972332,19.0447264 C6.84942024,19.0447264 6,18.1953062 6,17.1474932 C6,16.0996803 6.84942024,15.25026 7.8972332,15.25026 L38.2529644,15.25026 Z M107.818182,15.25026 C108.865995,15.25026 109.715415,16.0996803 109.715415,17.1474932 L122.996047,17.1474932 C124.04386,17.1474932 124.893281,17.9969135 124.893281,19.0447264 C124.893281,20.0925394 124.04386,20.9419596 122.996047,20.9419596 L92.6403162,20.9419596 C91.5925032,20.9419596 90.743083,20.0925394 90.743083,19.0447264 C90.743083,17.9969135 91.5925032,17.1474932 92.6403162,17.1474932 L105.920949,17.1468608 L105.924169,17.0360164 C105.981875,16.0400908 106.807791,15.25026 107.818182,15.25026 Z"
          id="形状结合" fill="#FFFFFF"></path>
        <g id="路径" fill-rule="nonzero">
          <use fill="url(#radialGradient-2)" xlink:href="#path-3"></use>
          <use fill="black" fill-opacity="1" filter="url(#filter-4)" xlink:href="#path-3"></use>
        </g>
        <path
          d="M75.1228287,19.1000494 C75.8119279,19.1000494 76.4075762,19.0196003 76.9097735,18.8587022 C77.4119708,18.697804 77.9897415,18.3946978 78.6430856,17.9493837 L78.6430856,17.9493837 L78.6430856,14.9020699 L75.2300941,14.9020699 L75.2300941,16.389159 L76.7074319,16.389159 L76.7074319,17.0620059 C76.4181402,17.2342807 76.1613532,17.3561733 75.9370709,17.4276836 C75.7127886,17.4991939 75.4771297,17.534949 75.2300941,17.534949 C74.7100192,17.534949 74.3045234,17.3691752 74.0136065,17.0376274 C73.7226896,16.7060797 73.5772311,16.1535001 73.5772311,15.3798887 C73.5772311,14.6517839 73.7210643,14.1195197 74.0087308,13.7830963 C74.2963972,13.4466728 74.6823903,13.2784611 75.16671,13.2784611 C75.4917568,13.2784611 75.7591078,13.3499714 75.968763,13.492992 C76.1784182,13.6360126 76.3271271,13.8424173 76.4148897,14.1122062 L76.4148897,14.1122062 L78.5455716,13.7319014 C78.4155528,13.2703349 78.2213374,12.8892175 77.9629252,12.5885493 C77.7045129,12.287881 77.3794661,12.0660365 76.9877847,11.9230159 C76.5961033,11.7799953 76.0053308,11.708485 75.215467,11.708485 C74.3963491,11.708485 73.7446302,11.8238766 73.2603105,12.0546599 C72.6394711,12.3537029 72.1681532,12.7917035 71.8463569,13.3686616 C71.5245605,13.9456197 71.3636624,14.6241549 71.3636624,15.4042672 C71.3636624,16.1453739 71.510746,16.8019685 71.8049134,17.3740509 C72.0990808,17.9461332 72.5135154,18.3768203 73.0482174,18.6661119 C73.5829194,18.9554036 74.2744565,19.1000494 75.1228287,19.1000494 Z M83.4554036,19.1000494 C84.2485178,19.1000494 84.9108007,18.9513405 85.4422522,18.6539227 C85.9737037,18.3565048 86.3800122,17.9404449 86.6611777,17.4057429 C86.9423432,16.8710409 87.0829259,16.1860048 87.0829259,15.3506345 C87.0829259,14.1999688 86.7611296,13.3052775 86.1175369,12.6665605 C85.4739442,12.0278435 84.5573123,11.708485 83.3676409,11.708485 C82.2072238,11.708485 81.3019685,12.0335318 80.6518749,12.6836254 C80.0017813,13.3337191 79.6767344,14.2422249 79.6767344,15.4091429 C79.6767344,16.2445132 79.8408831,16.9401134 80.1691804,17.4959434 C80.4974776,18.0517735 80.9257268,18.458082 81.4539279,18.7148689 C81.9821289,18.9716559 82.6492875,19.1000494 83.4554036,19.1000494 Z M83.382268,17.4471864 C82.9207016,17.4471864 82.5558365,17.2895387 82.2876729,16.9742433 C82.0195093,16.6589479 81.8854275,16.1404982 81.8854275,15.4188943 C81.8854275,14.6907895 82.0203219,14.1690893 82.2901108,13.8537939 C82.5598996,13.5384985 82.9174511,13.3808508 83.3627652,13.3808508 C83.8275822,13.3808508 84.1956977,13.5360607 84.4671118,13.8464804 C84.7385258,14.1569001 84.8742329,14.6485334 84.8742329,15.3213803 C84.8742329,16.1209954 84.7442142,16.6752002 84.4841767,16.9839947 C84.2241393,17.2927892 83.8568364,17.4471864 83.382268,17.4471864 Z"
          id="GO" fill="#FF2D12" fill-rule="nonzero"></path>
      </g>
    </g>
  </g>
</svg>