<svg t="1666677800189" class="icon" viewBox="0 0 1024 1024" version="1.1" xmlns="http://www.w3.org/2000/svg" p-id="6865"
  width="172" height="58">
  <path
    d="M898.92864 525.45536l4.096-5.86752c32.50176-46.39744 21.22752-110.24384-25.12896-142.63296-41.97376-29.39904-98.03776-22.66112-132.37248 13.25056-56.25856-26.10176-122.69568-43.04896-194.6624-47.58528a179.11808 179.11808 0 0 1 138.15808-109.43488c10.77248 23.48032 34.33472 39.86432 61.9008 39.86432C788.66432 273.05984 819.2 242.49344 819.2 204.8s-30.53568-68.27008-68.27008-68.27008c-29.42976 0-54.30272 18.71872-63.85664 44.81024-90.24512 11.70432-164.3008 75.60192-190.47424 160.50176-80.92672 2.01728-155.8016 19.46624-218.13248 48.36352-34.33472-35.91168-90.39872-42.6496-132.4032-13.25056-46.32576 32.38912-57.58976 96.23552-25.09824 142.63296l4.096 5.86752C110.6432 553.35936 102.4 583.18848 102.4 614.38976c0 150.86592 183.3984 273.08032 409.6 273.08032 226.23232 0 409.6-122.2144 409.6-273.08032 0-31.20128-8.2432-61.0304-22.67136-88.9344zM512 819.2c-184.99584 0-341.32992-93.80864-341.32992-204.81024 0-111.01184 156.33408-204.8 341.32992-204.8 185.02656 0 341.32992 93.77792 341.32992 204.8C853.32992 725.39136 697.02656 819.2 512 819.2z"
    p-id="6866" fill="#ffffff"></path>
  <path
    d="M646.47168 644.05504c-37.0688 37.05856-85.77024 55.6032-134.47168 55.6032s-97.40288-18.54464-134.46144-55.6032l-36.1984 36.1984c94.18752 94.19776 247.02976 94.2592 341.32992 0l-36.1984-36.1984zM452.27008 537.58976A42.69056 42.69056 0 0 1 409.6 580.25984a42.69056 42.69056 0 0 1-42.65984-42.67008A42.63936 42.63936 0 0 1 409.6 494.91968a42.6496 42.6496 0 0 1 42.67008 42.67008zM657.07008 537.58976c0 23.53152-19.0976 42.67008-42.67008 42.67008s-42.67008-19.13856-42.67008-42.67008c0-23.6032 19.0976-42.67008 42.67008-42.67008s42.67008 19.06688 42.67008 42.67008z"
    p-id="6867" fill="#ffffff"></path>
</svg>