<?xml version="1.0" encoding="UTF-8"?>
<svg width="40px" height="36px" viewBox="0 0 40 36" version="1.1" xmlns="http://www.w3.org/2000/svg" xmlns:xlink="http://www.w3.org/1999/xlink">
    <!-- Generator: Sketch 63.1 (92452) - https://sketch.com -->
    <title>gkgs</title>
    <desc>Created with Sketch.</desc>
    <g id="后台" stroke="none" stroke-width="1" fill="none" fill-rule="evenodd">
        <g id="侧边栏icon" transform="translate(-90.000000, -222.000000)" fill="#FFFFFF" fill-rule="nonzero">
            <g id="编组" transform="translate(90.000000, 222.000000)">
                <path d="M11.4522472,0.034137026 C11.6519975,0.034137026 11.7968165,0.206421656 11.7968165,0.376209445 L11.7968165,2.88806961 L28.2038078,2.88806961 L28.2038078,0.406171963 C28.2038078,0.206421656 28.3760924,0.0616026598 28.5458801,0.0616027037 L31.0577403,0.0616027037 C31.2574907,0.034137026 31.4272784,0.206421699 31.4272784,0.406171963 L31.4272784,2.91553529 L38.5633583,2.91553529 C39.3623596,2.91553529 39.9890761,3.54474877 39.9890761,4.34375 L39.9890761,30.0216526 C39.9890761,30.8206538 39.3623596,31.4498673 38.5633583,31.4498674 L31.4247815,31.4498674 L31.4247815,35.414911 C31.4247815,35.6146613 31.2549938,35.7594803 31.0827091,35.7594803 L28.5783396,35.7594803 C28.3886055,35.7581202 28.2351304,35.6046452 28.2337703,35.414911 L28.2337703,31.4498674 L11.7993134,31.4498674 L11.7993134,35.414911 C11.7993134,35.6146613 11.6270287,35.7594803 11.4547441,35.7594803 L8.94288391,35.7594803 C8.77059928,35.7594803 8.60081149,35.5871957 8.60081149,35.3874454 L8.60081149,31.4199048 L1.46223473,31.4199048 C1.08395695,31.4225877 0.720394198,31.2735034 0.452904689,31.0060139 C0.18541518,30.7385243 0.0363308099,30.3749616 0.0389781432,29.9966838 L0.0389781432,4.31378744 C0.0389781432,3.51478621 0.665730337,2.88806957 1.46473157,2.88806961 L8.60330837,2.88806961 L8.60330837,0.406171963 C8.60330837,0.206421656 8.77309612,0.034137026 8.94538079,0.034137026 L11.4497503,0.034137026 L11.4522472,0.034137026 Z M32.5134207,11.6196551 L30.0589888,11.6196551 C29.8352922,11.6237461 29.6253105,11.7282785 29.4872035,11.9042993 L24.8654806,18.3262719 L22.4959426,15.0428761 C22.3583853,14.8675247 22.1494697,14.7630669 21.9266542,14.7582319 L19.4722222,14.7582319 C19.187578,14.7582319 19.0152934,15.1003043 19.187578,15.3300172 L24.2936954,22.406172 C24.5808365,22.8056726 25.1501249,22.8056726 25.434769,22.406172 L32.7980649,12.1914404 C32.9703495,11.9617275 32.7980649,11.6196551 32.5134207,11.6196551 L32.5134207,11.6196551 Z M15.7343945,19.8368836 L7.51466915,19.8368836 C7.32591083,19.8395951 7.1739354,19.9926798 7.17259673,20.1814529 L7.17259673,22.3212781 C7.17259673,22.4910658 7.31491885,22.6633505 7.51466915,22.6633505 L15.7343945,22.6633505 C15.9221932,22.6606673 16.0737837,22.5090768 16.0764669,22.3212781 L16.0764669,20.1814529 C16.0751282,19.9926798 15.9231528,19.8395951 15.7343945,19.8368836 L15.7343945,19.8368836 Z M15.7343945,13.7594803 L7.51466915,13.7594803 C7.34488141,13.7594803 7.17259673,13.931765 7.17259673,14.1315153 L7.17259673,16.2713405 C7.17259673,16.4710908 7.34488136,16.6134129 7.51466915,16.5859472 L15.7343945,16.5859472 C15.9231528,16.5832358 16.0751282,16.430151 16.0764669,16.241378 L16.0764669,14.1015528 C16.0737837,13.913754 15.9221932,13.7621636 15.7343945,13.7594803 L15.7343945,13.7594803 Z" id="gkgs"></path>
            </g>
        </g>
    </g>
</svg>