<?xml version="1.0" encoding="UTF-8"?>
<svg width="40px" height="38px" viewBox="0 0 40 38" version="1.1" xmlns="http://www.w3.org/2000/svg" xmlns:xlink="http://www.w3.org/1999/xlink">
    <!-- Generator: Sketch 63.1 (92452) - https://sketch.com -->
    <title>gzt</title>
    <desc>Created with Sketch.</desc>
    <g id="后台" stroke="none" stroke-width="1" fill="none" fill-rule="evenodd">
        <g id="侧边栏icon" transform="translate(-90.000000, -75.000000)" fill="#FFFFFF" fill-rule="nonzero">
            <g id="编组" transform="translate(90.000000, 75.000000)">
                <path d="M32.0561306,34.9621815 L8.05632962,34.9621815 C7.42436306,34.9621815 6.90684713,35.5593153 6.90684713,36.2908041 C6.90684713,37.022293 7.42436306,37.6194268 8.05632962,37.6194268 L32.0611067,37.6194268 C32.6930732,37.6194268 33.2105892,37.022293 33.2105892,36.2908041 C33.2105892,35.5593153 32.6930732,34.9621815 32.0561306,34.9621815 L32.0561306,34.9621815 Z M37.6244029,0.0298566879 L2.28403662,0.0298566879 C1.02507962,0.0298566879 0,1.04996019 0,2.31389331 L0,28.0105494 C0,29.2695064 1.0201035,30.294586 2.28403662,30.294586 L37.629379,30.294586 C38.888336,30.294586 39.9134156,29.2744825 39.9134156,28.0105494 L39.9134156,2.31389331 C39.9084395,1.04996019 38.888336,0.0298566879 37.6244029,0.0298566879 Z M34.3998806,10.15625 L24.5322452,18.7649283 C23.7211385,19.4765127 22.5417994,19.6009156 21.5963376,19.0784236 L15.1522691,15.5005971 C14.9930334,15.4110271 14.7890127,15.4408838 14.6646099,15.5752389 L8.41460987,22.1685908 C8.12101911,22.4771099 7.70800159,22.6512739 7.28503185,22.6512739 C6.87699045,22.6512739 6.49382962,22.4970143 6.20521497,22.2133758 C5.58320064,21.616242 5.56329618,20.6259952 6.16042994,20.0039809 L12.9229697,12.8682325 C13.7291003,12.0272691 15.0079618,11.8332006 16.0230892,12.4004777 L22.5218949,16.0131369 C22.6711783,16.0977309 22.8552946,16.0778264 22.9846736,15.9633758 L32.3447452,7.80254777 C32.6582404,7.52886146 33.0563296,7.38953025 33.4792994,7.41938694 C33.897293,7.44924363 34.2754777,7.63833599 34.549164,7.95183121 C34.8228503,8.26532643 34.9572054,8.66839172 34.9323248,9.08140924 C34.9074443,9.49940287 34.7183519,9.88256369 34.3998806,10.15625 L34.3998806,10.15625 Z" id="工作台"></path>
            </g>
        </g>
    </g>
</svg>