<?xml version="1.0" encoding="UTF-8"?>
<svg width="40px" height="39px" viewBox="0 0 40 39" version="1.1" xmlns="http://www.w3.org/2000/svg" xmlns:xlink="http://www.w3.org/1999/xlink">
    <!-- Generator: Sketch 63.1 (92452) - https://sketch.com -->
    <title>mrbg</title>
    <desc>Created with Sketch.</desc>
    <g id="后台" stroke="none" stroke-width="1" fill="none" fill-rule="evenodd">
        <g id="侧边栏icon" transform="translate(-204.000000, -219.000000)" fill="#FFFFFF" fill-rule="nonzero">
            <g id="编组" transform="translate(204.000000, 219.000000)">
                <g id="mrbg">
                    <path d="M26.4017034,29.986072 C26.2506908,30.1365203 26.2872999,30.1011207 26.4017034,29.986072 L26.4017034,29.986072 Z" id="路径"></path>
                    <path d="M26.3414264,29.986072 C26.3649558,29.9515342 26.390446,29.9169964 26.4414264,29.8406497 C26.4061322,29.8915475 26.3708381,29.9424453 26.3414264,29.986072 Z" id="路径"></path>
                    <path d="M7.27111348,7.03843784 L7.26929569,3.63555676 L4.97379915e-14,3.63555676 L4.97379915e-14,36.3555674 C4.97379915e-14,38.1733458 1.9995562,38.1733458 1.9995562,38.1733458 L38.1733458,38.1733458 C38.1733458,38.1733458 39.9911241,38.1733458 39.9911241,36.3555674 L39.9911241,3.63555676 L32.7200107,3.63555676 L32.7200107,7.03662009 C32.7200107,8.1781849 31.4984636,9.08889185 29.9915253,9.08889185 L28.1773825,9.08889185 C26.6649909,9.08889185 25.4488972,8.17091377 25.4488972,7.03843784 L25.4488972,3.63555676 L14.542227,3.63555676 L14.542227,7.03662009 C14.542227,8.1781849 13.3206799,9.08889185 11.8137416,9.08889185 L9.99959881,9.08889185 C8.48720719,9.08889185 7.27111348,8.17091377 7.27111348,7.03843784 Z M16.3600053,32.7200107 L14.5876714,32.7200107 L14.5876714,21.8533316 L10.9066702,21.8533316 L10.9066702,20.6226956 C12.2463729,20.5099933 13.180711,20.3209444 13.7096845,20.0555487 C14.238658,19.7901531 14.6349337,19.1648374 14.894876,18.1777837 L16.3600053,18.1777837 L16.3600053,32.7200107 Z M28.2846314,30.0115209 C27.5120756,31.8165748 26.2487197,32.7200107 24.4945635,32.7200107 C22.9130964,32.7200107 21.735176,31.9819927 20.9626202,30.5059566 C20.3173089,29.2735029 19.9955621,27.6193245 19.9955621,25.5434217 C19.9955621,23.9346878 20.1882466,22.554994 20.5754334,21.4007048 C21.2989092,19.2520907 22.6077096,18.1777837 24.5036524,18.1777837 C26.2087285,18.1777837 27.4411823,18.9321617 28.2010136,20.4409178 C28.7899738,21.6079315 29.0844539,23.2057587 29.0844539,25.2362171 C29.0844539,27.1612444 28.8172405,28.7518005 28.2846314,30.0115209 Z M36.3555674,10.9066702 L36.3555674,12.7244486 L3.63555676,12.7244486 L3.63555676,10.9066702 L36.3555674,10.9066702 Z" id="形状"></path>
                    <path d="M24.5981769,19.9955621 C23.6329366,19.9955621 22.9276386,20.4700022 22.4822829,21.4188825 C22.0369272,22.3695806 21.8133404,23.7674522 21.8133404,25.6161328 C21.8133404,27.0067332 21.9551272,28.124667 22.2405184,28.9699339 C22.6786029,30.256921 23.4238921,30.9022323 24.4800213,30.9022323 C25.3289238,30.9022323 26.0069551,30.5077744 26.5104797,29.7206763 C27.0140044,28.9335783 27.2666755,27.4666312 27.2666755,25.3198349 C27.2666755,23.7710877 27.0848977,22.4950073 26.7195242,21.4952292 C26.3559686,20.4954511 25.6488528,19.9955621 24.5981769,19.9955621 Z" id="路径"></path>
                    <path d="M30.9022323,5.45515288 L30.9022323,1.8159606 C30.9022323,0.812546915 30.0860498,-4.52970994e-13 29.0844539,-4.52970994e-13 C28.0810403,-4.52970994e-13 27.2666755,0.812546915 27.2666755,1.8159606 L27.2666755,5.45515288 C27.2666755,6.45856656 28.082858,7.27111348 29.0844539,7.27111348 C30.0878676,7.27111348 30.9022323,6.45856656 30.9022323,5.45515288 Z" id="路径"></path>
                    <path d="M11.3611148,7.27111348 C12.113675,7.27111348 12.7244486,6.66397551 12.7244486,5.90414416 L12.7244486,1.36696932 C12.7244486,0.612591314 12.1154928,-4.52970994e-13 11.3611148,-4.52970994e-13 L10.4522256,-4.52970994e-13 C9.69966539,-4.52970994e-13 9.08889185,0.607137968 9.08889185,1.36696932 L9.08889185,5.90232634 C9.08889185,6.65852216 9.6978476,7.27111348 10.4522256,7.27111348 L11.3611148,7.27111348 Z" id="路径"></path>
                </g>
            </g>
        </g>
    </g>
</svg>