<?xml version="1.0" encoding="UTF-8"?>
<svg width="40px" height="39px" viewBox="0 0 40 39" version="1.1" xmlns="http://www.w3.org/2000/svg" xmlns:xlink="http://www.w3.org/1999/xlink">
    <!-- Generator: Sketch 63.1 (92452) - https://sketch.com -->
    <title>qyrygl</title>
    <desc>Created with Sketch.</desc>
    <g id="后台" stroke="none" stroke-width="1" fill="none" fill-rule="evenodd">
        <g id="侧边栏icon" transform="translate(-107.000000, -472.000000)" fill="#FFFFFF" fill-rule="nonzero">
            <g id="编组" transform="translate(107.000000, 472.000000)">
                <path d="M14.6957944,1.35416667 L6.61740654,1.35416667 C2.74949377,1.35416667 0.0252725857,4.55327103 0.0252725857,8.83987539 L0.0252725857,13.7699377 L9.0751947,20.2514798 L14.6939252,1.35599688 L14.6957944,1.35416667 Z M0.0252725857,31.2045171 C0.0252725857,33.9450545 1.25420561,36.4100857 3.45097352,37.6860981 L7.84450935,24.9984424 L0.0252725857,19.5192368 L0.0252725857,31.2045171 L0.0252725857,31.2045171 Z M39.8426791,6.82982866 C39.8426791,3.03442368 36.8629283,0.038317757 33.116433,0.038317757 C29.3663162,0.038317757 26.3883567,3.03080218 26.3883567,6.82620717 C26.3883567,10.6234424 33.116433,19.1096573 33.116433,19.1096573 C33.116433,19.1096573 39.8408489,10.9225078 39.8408489,6.82620717 L39.8408489,6.82982866 L39.8426791,6.82982866 Z M29.9517523,7.0654595 C29.9517523,5.33088006 31.4452882,3.87180685 33.116433,3.87180685 C34.7839564,3.87180685 36.0146417,5.33088006 36.0146417,7.0654595 C36.0146417,8.80183022 34.5211449,10.2609424 32.8517913,10.2609424 C31.1842679,10.2609424 29.9517523,8.80183022 29.9517523,7.0654595 L29.9517523,7.0654595 Z M32.7394081,23.9943925 L32.6977414,24.0813863 C32.7208247,24.0649243 32.7426289,24.046739 32.7629673,24.026986 L33.056581,24.3967679 L36.4641355,20.246067 C36.5609378,20.1293546 36.656401,20.0115379 36.7505062,19.8926402 L36.7505062,31.1103193 C36.7505062,33.394081 35.5180296,35.4005452 33.8522975,36.8614486 L13.5557243,23.4433411 L20.8475078,1.35961838 L22.7252336,1.35961838 C22.2787195,2.59578577 22.0517694,3.90050144 22.054634,5.21483645 C22.054634,7.41705607 22.9663162,9.75700935 24.563162,12.588162 C25.028972,13.4128505 25.5491433,14.2647586 26.1146807,15.1365654 C27.2433505,16.8723593 28.446779,18.5583805 29.7215732,20.1898754 L32.7394081,23.9961449 L32.7394081,23.9943925 Z M8.28313863,38.6939252 L27.3508178,38.6939252 L11.7124221,28.0109034 L8.28313863,38.6939252 L8.28313863,38.6939252 Z" id="qyrygl"></path>
            </g>
        </g>
    </g>
</svg>