<?xml version="1.0" encoding="UTF-8"?>
<svg width="42px" height="40px" viewBox="0 0 42 40" version="1.1" xmlns="http://www.w3.org/2000/svg" xmlns:xlink="http://www.w3.org/1999/xlink">
    <!-- Generator: Sketch 60.1 (88133) - https://sketch.com -->
    <title>shouye</title>
    <desc>Created with Sketch.</desc>
    <g id="后台管理" stroke="none" stroke-width="1" fill="none" fill-rule="evenodd">
        <g id="后台侧边栏图标" transform="translate(-40.000000, -36.000000)" fill="#FFFFFF" fill-rule="nonzero" stroke="#FFFFFF" stroke-width="0.4">
            <g id="首页" transform="translate(40.000000, 36.000000)">
                <path d="M24.54,2.06651029 L24.774,2.23050804 L38.486,12.2883691 C39.986,13.3883539 40.906,15.0843304 40.994,16.9163051 L41,17.2063011 L41,30.6181158 C41,35.1420533 37.33,38.8500021 32.706,38.9960001 L32.428,39 L9.57200002,39 C4.94600003,39 1.15400003,35.4100496 1.00400003,30.8901121 L1,30.6181158 L1,17.2063011 C1,15.3723265 1.83799998,13.6343505 3.28200001,12.4663666 L3.514,12.2883691 L17.23,2.22850806 C19.3925305,0.65232597 22.3088668,0.586898803 24.54,2.06651029 Z M19.4346007,4.79047266 L19.2550243,4.910471 L5.14531247,14.970332 C4.48941593,15.4497049 4.0759631,16.193034 4.01398119,17.0043039 L4.006,17.2043011 L4.006,30.6181158 C4.006,33.3040787 6.58092143,35.5140482 9.31646849,35.6420464 L9.5598943,35.6480463 L32.962948,35.6480463 C35.7024856,35.6480463 37.9591623,33.5380755 38.0888564,30.8541126 L38.0948422,30.6181158 L38.0948422,17.2063011 C38.0948422,16.3983123 37.7356895,15.6283229 37.113158,15.0983302 L36.9535345,14.970332 L22.6729616,4.910471 C21.7182807,4.21414113 20.4379698,4.16669886 19.4346007,4.79047266 Z M24.428,27.2641621 C25.344,27.2641621 26.096,27.9681524 26.14,28.8601401 C26.1753039,29.7629355 25.4942709,30.5338226 24.594,30.6101159 L24.428,30.6181158 L17.572,30.6181158 C16.667258,30.6272068 15.9143055,29.9252818 15.86,29.0221379 C15.8246961,28.1193424 16.5057291,27.3484554 17.406,27.272162 L17.572,27.2641621 L24.428,27.2641621 L24.428,27.2641621 Z" id="shouye"></path>
            </g>
        </g>
    </g>
</svg>