<?xml version="1.0" encoding="UTF-8"?>
<svg width="36px" height="40px" viewBox="0 0 36 40" version="1.1" xmlns="http://www.w3.org/2000/svg" xmlns:xlink="http://www.w3.org/1999/xlink">
    <!-- Generator: Sketch 63.1 (92452) - https://sketch.com -->
    <title>sjcl</title>
    <desc>Created with Sketch.</desc>
    <g id="后台" stroke="none" stroke-width="1" fill="none" fill-rule="evenodd">
        <g id="侧边栏icon" transform="translate(-700.000000, -472.000000)" fill="#FFFFFF" fill-rule="nonzero">
            <g id="编组" transform="translate(700.000000, 472.000000)">
                <path d="M25.9481038,0.0155937968 L35.9281437,9.99563375 L35.9281437,37.9557136 C35.9266753,39.0496898 35.0394197,39.9357535 33.9454425,39.9357535 L1.98270125,39.9357535 C0.891733987,39.9285149 0.00870390796,39.0466701 0,37.9557136 L0,1.99563375 C0,0.901821388 0.888888894,0.0155937968 1.98270125,0.0155937968 L25.9481038,0.0155937968 Z M15.9680639,25.9636976 L15.9680639,29.9557136 L19.9600799,29.9557136 L19.9600799,25.9636976 L15.9680639,25.9636976 L15.9680639,25.9636976 Z M15.9680639,9.99563375 L15.9680639,21.9716817 L19.9600799,21.9716817 L19.9600799,9.99563375 L15.9680639,9.99563375 L15.9680639,9.99563375 Z" id="sjcl"></path>
            </g>
        </g>
    </g>
</svg>