<?xml version="1.0" encoding="UTF-8"?>
<svg width="40px" height="40px" viewBox="0 0 40 40" version="1.1" xmlns="http://www.w3.org/2000/svg" xmlns:xlink="http://www.w3.org/1999/xlink">
    <!-- Generator: Sketch 63.1 (92452) - https://sketch.com -->
    <title>wygl</title>
    <desc>Created with Sketch.</desc>
    <g id="后台" stroke="none" stroke-width="1" fill="none" fill-rule="evenodd">
        <g id="侧边栏icon" transform="translate(-401.000000, -471.000000)" fill="#FFFFFF" fill-rule="nonzero">
            <g id="编组" transform="translate(401.000000, 471.000000)">
                <g id="wygl" transform="translate(0.013317, 0.033292)">
                    <path d="M32.857777,24.6311257 C34.6741832,24.6311257 36.3574219,25.1944247 37.7476918,26.1523438 C38.5435902,24.0123402 38.9768288,21.7249645 38.9768288,19.3554688 C38.8884943,16.7924361 38.3580433,14.3177379 37.3859197,11.8430398 C36.4137962,9.54501065 34.9995561,7.42409446 33.231978,5.65607244 L32.9669744,5.390625 C29.3434837,1.94424716 24.4824219,8.52651283e-14 19.4442472,8.52651283e-14 C14.2294034,8.52651283e-14 9.36834162,2.03258168 5.65607244,5.65651634 L5.65607244,5.74485085 C2.03258168,9.45667614 -1.42108547e-14,14.3177379 -1.42108547e-14,19.4442472 C-1.42108547e-14,21.5656072 0.35378196,23.5098544 0.97212358,25.4541016 C1.59090909,27.2221236 2.38636364,28.9013672 3.44682173,30.4922763 L3.62393466,30.6689453 L3.62393466,38.0934837 C3.62393466,38.4468217 3.97727273,38.8006037 4.33105469,38.8006037 L19.4446911,38.8006037 C21.5567294,38.8006037 23.5564631,38.4512607 25.5335582,37.8227095 C24.707919,36.4985795 24.2231889,34.9405185 24.2231889,33.2657138 C24.2231889,28.4969815 28.0890447,24.6311257 32.857777,24.6311257 L32.857777,24.6311257 Z M19.0021307,29.4318182 C18.8254616,29.4318182 18.7371271,29.3434837 18.5600142,29.2551491 L11.6663707,22.6265092 L11.5780362,22.5381747 C9.89879261,20.8589311 9.45667614,18.737571 10.2525746,16.7049893 C11.1363636,14.4952947 13.3456143,12.9927202 15.6440874,12.9927202 C16.7045455,12.9927202 17.7654474,13.3460582 18.737571,13.9648438 L18.9142401,14.0531783 L19.0909091,13.9648438 C20.0630327,13.3460582 21.1239347,12.9927202 22.1843928,12.9927202 C24.4824219,12.9927202 26.6921165,14.4952947 27.5759055,16.7049893 C28.5480291,18.7380149 28.1063565,20.8589311 26.4271129,22.5381747 L19.4446911,29.255593 C19.3559126,29.3434837 19.1792436,29.4318182 19.0021307,29.4318182 L19.0021307,29.4318182 Z" id="形状"></path>
                    <path d="M38.2781428,33.2816939 C38.2781428,32.6251776 38.7415661,32.0774148 39.3594638,31.9473544 C39.2143111,31.2282493 38.9501953,30.5379972 38.5782138,29.9058949 C38.3547228,30.054742 38.0921184,30.1339868 37.8235973,30.1336115 C37.0703125,30.1336115 36.4599609,29.5228161 36.4599609,28.7699751 C36.4594417,28.455307 36.5683464,28.1502484 36.768022,27.907049 C36.0213956,27.3615057 35.1571378,26.9677734 34.2196378,26.772017 C34.1126598,27.4183239 33.5511364,27.9114879 32.874201,27.9114879 C32.1950462,27.9114879 31.6317472,27.4147727 31.5278764,26.7653587 C30.5868253,26.9566761 29.7181286,27.347745 28.967951,27.8919567 C29.1755024,28.1375483 29.2890829,28.4488721 29.2884411,28.770419 C29.2884411,29.5237038 28.6780895,30.1340554 27.9248047,30.1340554 C27.6464844,30.1344993 27.3743786,30.049272 27.146218,29.8899148 C26.7699132,30.5245779 26.5029661,31.21798 26.3565341,31.9411399 C26.9904119,32.0583274 27.4702592,32.6140803 27.4702592,33.2821378 C27.4702592,33.947532 26.9935192,34.5015092 26.3631925,34.621804 C26.5266097,35.4085941 26.832607,36.158844 27.2660689,36.8354936 C27.4680398,36.7240767 27.6944247,36.6659268 27.9248047,36.6663707 C28.6780895,36.6663707 29.2884411,37.2767223 29.2884411,38.0300071 C29.2888849,38.2763672 29.2223011,38.5182884 29.0957919,38.729581 C29.8317655,39.237904 30.6634752,39.5911579 31.5403054,39.7678445 C31.6703658,39.1499467 32.2181286,38.6865234 32.8746449,38.6865234 C33.5284979,38.6865234 34.074929,39.1468395 34.2076527,39.7611861 C35.0981001,39.5774148 35.9228516,39.214755 36.6437322,38.7127131 C36.5233767,38.5051776 36.4601238,38.2694723 36.4604048,38.0295632 C36.4604048,37.2762784 37.0712003,36.6659268 37.8240412,36.6659268 C38.0446555,36.665483 38.2621626,36.7191939 38.4574751,36.821733 C38.8874439,36.14663 39.1909793,35.3989221 39.3532493,34.6151456 C38.7384588,34.481978 38.2781428,33.9355469 38.2781428,33.2816939 L38.2781428,33.2816939 Z M32.8737571,35.5206854 C31.6370739,35.5206854 30.6347656,34.5179332 30.6347656,33.2816939 C30.6347656,32.0450107 31.6375178,31.0422585 32.8737571,31.0422585 C34.1104403,31.0422585 35.1127487,32.0450107 35.1127487,33.2816939 C35.1131925,34.5179332 34.1104403,35.5206854 32.8737571,35.5206854 L32.8737571,35.5206854 Z" id="形状"></path>
                </g>
            </g>
        </g>
    </g>
</svg>