<?xml version="1.0" encoding="UTF-8"?>
<svg width="40px" height="40px" viewBox="0 0 40 40" version="1.1" xmlns="http://www.w3.org/2000/svg" xmlns:xlink="http://www.w3.org/1999/xlink">
    <!-- Generator: Sketch 63.1 (92452) - https://sketch.com -->
    <title>wygzgl</title>
    <desc>Created with Sketch.</desc>
    <g id="后台" stroke="none" stroke-width="1" fill="none" fill-rule="evenodd">
        <g id="侧边栏icon" transform="translate(-541.000000, -471.000000)" fill="#FFFFFF" fill-rule="nonzero">
            <g id="编组" transform="translate(541.000000, 471.000000)">
                <path d="M0.00416250777,26.5339967 C-0.108192482,29.3341796 2.06357817,31.698667 4.86320068,31.8242123 L15.5928856,31.8242123 L15.5928856,36.7993366 L10.0704975,36.7993366 C9.27366877,36.7993366 8.62771144,37.445294 8.62771144,38.2421227 C8.62771144,39.0389515 9.27366877,39.6849088 10.0704975,39.6849088 L29.970995,39.6849088 C30.7678238,39.6849088 31.4137811,39.0389515 31.4137811,38.2421227 C31.4137811,37.445294 30.7678238,36.7993366 29.970995,36.7993366 L24.2164345,36.7993366 L24.2164345,31.8242123 L34.9461194,31.8242123 C37.7457419,31.698667 39.9175125,29.3341796 39.8051575,26.5339967 L39.8051575,25.3399668 L0.00416250777,25.3399668 L0.00416250777,26.5339967 Z M34.9461194,0 L4.86320068,0 C2.07288196,0.116752731 -0.0986723472,2.46618177 0.00416250777,5.25704808 L0.00416250777,23.681592 L39.8051575,23.681592 L39.8051575,5.25704808 C39.9079924,2.46618179 37.7364381,0.116752752 34.9461194,0 Z M13.1384909,18.2421229 L6.72058042,18.2421229 C6.19289442,18.242426 5.76002687,17.8242319 5.7421393,17.2968491 L5.7421393,17.1310116 C5.75975263,16.6008376 6.19018279,16.1777029 6.72058042,16.1691542 L13.1384909,16.1691542 C13.6724583,16.1690775 14.1078817,16.5971208 14.116932,17.1310116 L14.116932,17.2968491 C14.0990444,17.8242319 13.6661769,18.242426 13.1384909,18.2421229 L13.1384909,18.2421229 Z M17.0522554,11.8242123 C17.0478948,12.079325 16.9423502,12.3222522 16.7588486,12.4995335 C16.5753469,12.6768147 16.3289257,12.7739223 16.0738142,12.7694859 L6.72058042,12.7694859 C6.19289442,12.7697892 5.76002687,12.3515951 5.7421393,11.8242123 L5.7421393,11.6583748 C5.75975263,11.1282008 6.19018279,10.705066 6.72058042,10.6965174 L16.0738142,10.6965174 C16.3317758,10.6920691 16.5807101,10.7914402 16.7646961,10.9723079 C16.9486822,11.1531755 17.0522554,11.4003749 17.0522554,11.6583748 L17.0522554,11.8242123 Z M17.8980265,7.46268657 L6.63766169,7.46268657 C6.35616156,7.46711937 6.08443353,7.35952733 5.88227232,7.16358647 C5.68011112,6.96764561 5.56408218,6.69941165 5.55971809,6.41791045 C5.58653303,5.84477478 6.06397926,5.39670984 6.63766169,5.40630181 L17.9146103,5.40630181 C18.2878728,5.4063018 18.6327817,5.605435 18.819413,5.92868986 C19.0060442,6.25194472 19.0060442,6.65021114 18.819413,6.973466 C18.6327817,7.29672086 18.2878728,7.49585405 17.9146103,7.49585405 L17.8980265,7.46268657 Z M37.0190879,11.0281924 L37.0190879,14.5771144 L35.0622057,14.5771144 C35.0622057,14.8258706 34.9129519,15.0580431 34.8300332,15.2902156 C34.7471144,15.4726368 34.6641957,15.6716418 34.5646932,15.854063 L35.9411443,17.2802654 L33.4535821,19.9004975 L32.0605473,18.4742952 L31.5132836,18.7562189 C31.2758128,18.8644655 31.032161,18.9586037 30.7835987,19.0381426 L30.7835987,21.0613599 L27.2678441,21.0613599 L27.2678441,19.0713101 C27.0236564,18.9946543 26.785334,18.9004338 26.554743,18.7893864 L26.0074793,18.5074627 L24.6144445,19.933665 L22.0937147,17.4129353 L23.4701659,15.986733 C23.3706634,15.8043118 23.2877446,15.6053068 23.2048259,15.4228856 C23.1046467,15.1915623 23.0215065,14.9532271 22.9560697,14.7097844 L20.9494361,14.7097844 L20.9494361,11.0281924 L22.9063184,11.0281924 C23.0451948,10.5401464 23.2341481,10.0677632 23.4701659,9.61857381 L22.0937147,8.19237146 L24.514942,5.68822555 L25.9079768,7.11442786 C26.3360667,6.86655263 26.7927063,6.67164549 27.2678441,6.5339967 L27.2678441,4.51077942 L30.7006799,4.51077942 L30.7006799,6.5339967 C31.1769198,6.66854029 31.6339372,6.86360869 32.0605473,7.11442786 L33.4535821,5.68822555 L35.891393,8.19237146 L34.4983582,9.61857381 C34.7343759,10.0677632 34.9233292,10.5401464 35.0622057,11.0281924 L37.0190879,11.0281924 Z M28.9925539,17.3300472 C27.1599122,17.3367296 25.5039885,16.2379394 24.7980104,14.5467222 C24.0920324,12.855505 24.4752702,10.9054916 25.7687723,9.60723396 C27.0622744,8.30897633 29.0108683,7.91858509 30.7046649,8.61835207 C32.3984614,9.31811906 33.5033333,10.9699994 33.5033333,12.8026534 C33.5033333,15.296585 31.4864688,17.3208813 28.9925539,17.3300472 L28.9925539,17.3300472 Z" id="wygzgl"></path>
            </g>
        </g>
    </g>
</svg>