<?xml version="1.0" encoding="UTF-8"?>
<svg width="40px" height="40px" viewBox="0 0 40 40" version="1.1" xmlns="http://www.w3.org/2000/svg" xmlns:xlink="http://www.w3.org/1999/xlink">
    <!-- Generator: Sketch 63.1 (92452) - https://sketch.com -->
    <title>xqgl</title>
    <desc>Created with Sketch.</desc>
    <g id="后台" stroke="none" stroke-width="1" fill="none" fill-rule="evenodd">
        <g id="侧边栏icon" transform="translate(-263.000000, -470.000000)" fill="#FFFFFF" fill-rule="nonzero">
            <g id="编组" transform="translate(264.000000, 470.000000)">
                <g id="xqgl" transform="translate(0.035295, 0.044619)">
                    <path d="M32.1531031,25.0119546 C33.2284443,25.0119546 34.2534982,25.2211859 35.1990801,25.5889122 L35.1990801,14.7879064 L35.9233078,15.2638403 C36.1567848,15.444785 36.4427942,15.5318899 36.7180276,15.5318899 C37.0915909,15.5318899 37.4669501,15.369803 37.7156929,15.057752 C38.1498703,14.5180609 38.0632144,13.7327699 37.5136455,13.3057764 L21.4621009,0.808021361 C20.0809946,-0.27001384 17.9128013,-0.268666857 16.532144,0.808021361 L0.481497467,13.3053274 C-0.0671735102,13.7323209 -0.161013309,14.5185099 0.272715139,15.057303 C0.705545599,15.5978921 1.48455063,15.6899359 2.03277261,15.2633913 L2.82928842,14.7874574 L2.82928842,35.1942462 C2.82928842,37.3363978 4.82416988,38.7130142 6.83970508,38.7130142 L25.6049709,38.7130142 C24.4375858,37.2681507 23.7358078,35.4313152 23.7358078,33.4292498 C23.7353588,28.7808123 27.5042166,25.0119546 32.1531031,25.0119546 Z M20.5052942,35.8987182 L12.0610592,35.8987182 L12.0610592,25.3433123 C12.0610592,23.8917139 13.6716016,21.8249933 16.2829522,21.8249933 C18.8943028,21.8249933 20.5052942,23.8926119 20.5052942,25.3433123 L20.5052942,35.8987182 L20.5052942,35.8987182 Z" id="形状"></path>
                    <path d="M37.4373164,33.4449646 C37.4373164,32.8051478 37.8894536,32.2708446 38.4915549,32.1442283 C38.3501217,31.4433482 38.092848,30.7703058 37.7296117,30.1538367 C37.5118007,30.298898 37.2558539,30.3760883 36.9941591,30.3756399 C36.2600535,30.3756399 35.6646871,29.7802735 35.6646871,29.0461679 C35.6641431,28.7393381 35.7703356,28.441872 35.9650643,28.2047527 C35.2372446,27.6726945 34.3944824,27.2892534 33.4803301,27.0984308 C33.3761634,27.7288188 32.8288394,28.2092426 32.1688179,28.2092426 C31.5070003,28.2092426 30.9578804,27.7252268 30.8564077,27.0916959 C29.9386634,27.2784775 29.0918603,27.6592247 28.3604486,28.1894869 C28.5626061,28.428954 28.6733299,28.7323309 28.6729486,29.0457189 C28.6729486,29.7798245 28.0780312,30.3751909 27.3434766,30.3751909 C27.0718351,30.3756399 26.8069285,30.292576 26.5842274,30.1372239 C26.2173512,30.7559949 25.9570524,31.4320128 25.8142022,32.1370443 C26.4320183,32.2515379 26.8998703,32.793025 26.8998703,33.4440666 C26.8998703,34.0928633 26.4351613,34.6330034 25.8204881,34.7497419 C25.9798811,35.5166241 26.2784623,36.2480357 26.7009659,36.9076083 C26.8975629,36.7991036 27.1184756,36.7422533 27.3430276,36.7423784 C28.0771332,36.7423784 28.6724996,37.3372958 28.6724996,38.0718504 C28.6729486,38.3120623 28.6078444,38.5477843 28.484371,38.7538727 C29.2018358,39.2493303 30.0125154,39.5937966 30.8671835,39.7663547 C30.9937999,39.1642534 31.5281031,38.7121162 32.1679199,38.7121162 C32.8054917,38.7121162 33.3384479,39.1606614 33.4673092,39.7596198 C34.3352151,39.5804711 35.1393638,39.2271126 35.8420399,38.7377089 C35.7246219,38.535471 35.6629579,38.3057029 35.6633401,38.0718504 C35.6633401,37.3377448 36.2587065,36.7423784 36.9928121,36.7423784 C37.2078804,36.7419294 37.4198057,36.7940127 37.6106282,36.8941385 C38.0299888,36.2359129 38.3258761,35.5067462 38.483922,34.742558 C37.8858617,34.6150436 37.4373164,34.0825364 37.4373164,33.4449646 L37.4373164,33.4449646 Z M32.1688179,35.6275257 C30.9632683,35.6275257 29.9858078,34.6500652 29.9858078,33.4445156 C29.9858078,32.238966 30.9632683,31.2615056 32.1688179,31.2615056 C33.3743674,31.2615056 34.3518279,32.238966 34.3518279,33.4445156 C34.3513789,34.6505142 33.3743674,35.6275257 32.1688179,35.6275257 Z" id="形状"></path>
                </g>
            </g>
        </g>
    </g>
</svg>