<?xml version="1.0" encoding="UTF-8"?>
<svg width="39px" height="40px" viewBox="0 0 39 40" version="1.1" xmlns="http://www.w3.org/2000/svg" xmlns:xlink="http://www.w3.org/1999/xlink">
    <!-- Generator: Sketch 63.1 (92452) - https://sketch.com -->
    <title>yzysgl</title>
    <desc>Created with Sketch.</desc>
    <g id="后台" stroke="none" stroke-width="1" fill="none" fill-rule="evenodd">
        <g id="侧边栏icon" transform="translate(-841.000000, -469.000000)" fill="#FFFFFF" fill-rule="nonzero">
            <g id="编组" transform="translate(841.000000, 469.000000)">
                <g id="yzysgl" transform="translate(0.017857, 0.000000)">
                    <path d="M17.6160714,35.9955357 C17.6160714,32.3169643 18.8526786,29.46875 20.6517857,27.4866071 C18.3526786,24.0491071 14.7410714,21.9464286 11.5,21.9464286 C6.23660714,21.9464286 3.19744231e-14,26.5178571 3.19744231e-14,35.2767857 C0.00892857143,37.7633929 5.15178571,39.7767857 11.5,39.7767857 C14.71875,39.7767857 17.625,39.2633929 19.7142857,38.4241071 C18.4017857,37.7455357 17.625,36.90625 17.6160714,35.9955357 L17.6160714,35.9955357 Z M9.94642857,24.5044643 L10.5625,23.65625 C10.7276786,23.4241071 11.1026786,23.2366071 11.3928571,23.2366071 L11.6160714,23.2366071 C11.9017857,23.2366071 12.2723214,23.4285714 12.4464286,23.65625 L13.0625,24.5044643 C13.2276786,24.7366071 13.2276786,25.1160714 13.0625,25.3482143 L13.0223214,25.3973214 C12.8571429,25.6294643 12.4821429,25.8169643 12.1919643,25.8169643 L10.8125,25.8169643 C10.5267857,25.8169643 10.15625,25.6294643 9.98214286,25.3973214 L9.94642857,25.3482143 C9.78125,25.1160714 9.78125,24.7366071 9.94642857,24.5044643 L9.94642857,24.5044643 Z M13.4107143,34.6026786 L11.8258929,36.6116071 C11.6473214,36.8348214 11.3571429,36.8348214 11.1785714,36.6116071 L9.58482143,34.6026786 C9.40625,34.3794643 9.29017857,33.9598214 9.32589286,33.6785714 L10.21875,26.8258929 C10.2544643,26.5446429 10.5223214,26.3125 10.8035714,26.3125 L12.1919643,26.3125 C12.4776786,26.3125 12.7410714,26.5446429 12.7767857,26.8258929 L13.6696429,33.6785714 C13.7053571,33.9598214 13.5892857,34.375 13.4107143,34.6026786 L13.4107143,34.6026786 Z M11.5089286,21.0758929 C15.3035714,21.0758929 18.375,18 18.375,14.2053571 C18.375,10.4107143 15.2991071,7.33482143 11.5044643,7.33482143 C7.70982143,7.33928571 4.63839286,10.4151786 4.63839286,14.2053571 C4.63839286,18 7.71428571,21.0758929 11.5089286,21.0758929 Z" id="形状"></path>
                    <path d="M27.8571429,24.1294643 C25.3883929,24.1294643 22.6696429,25.2589286 20.6607143,27.4821429 C18.8616071,29.46875 17.625,32.3169643 17.625,35.9910714 C17.6294643,36.90625 18.40625,37.7455357 19.71875,38.4196429 C21.5892857,39.3839286 24.5357143,40 27.8571429,40 C33.5044643,40 38.0848214,38.2053571 38.0892857,35.9955357 C38.0892857,29.0669643 32.53125,24.1294643 27.8571429,24.1294643 L27.8571429,24.1294643 Z M27.8526786,11.1339286 C24.4776786,11.1383929 21.7410714,13.875 21.7410714,17.2455357 C21.7410714,20.6205357 24.4776786,23.3571429 27.8526786,23.3571429 C31.2276786,23.3571429 33.9642857,20.6205357 33.9642857,17.2455357 C33.9642857,13.8705357 31.2276786,11.1339286 27.8526786,11.1339286 Z" id="形状"></path>
                    <path d="M20,10.1607143 L20.7589286,10.1607143 L20.7589286,12.6696429 L22.8571429,10.1607143 L32.2053571,10.1607143 C32.8482143,10.1607143 33.3660714,9.63839286 33.3660714,9 L33.3660714,1.16071429 C33.3660714,0.517857143 32.84375,1.29674049e-13 32.2053571,1.29674049e-13 L20,1.29674049e-13 C19.3571429,1.29674049e-13 18.8392857,0.522321429 18.8392857,1.16071429 L18.8392857,9 C18.8392857,9.64285714 19.3616071,10.1607143 20,10.1607143 Z M29.8794643,3.5625 C30.5848214,3.5625 31.15625,4.13392857 31.15625,4.83928571 C31.15625,5.54464286 30.5892857,6.11607143 29.8794643,6.11607143 C29.1741071,6.11607143 28.6026786,5.54464286 28.6026786,4.83928571 C28.6026786,4.13392857 29.1741071,3.5625 29.8794643,3.5625 Z M26.1696429,3.5625 C26.875,3.5625 27.4464286,4.12946429 27.4464286,4.83928571 C27.4464286,5.54464286 26.875,6.11607143 26.1696429,6.11607143 C25.4642857,6.11607143 24.8928571,5.54464286 24.8928571,4.83928571 C24.8928571,4.13392857 25.4642857,3.5625 26.1696429,3.5625 Z M22.4553571,3.5625 C23.1651786,3.5625 23.7321429,4.12946429 23.7321429,4.83928571 C23.7321429,5.54464286 23.1607143,6.11607143 22.4553571,6.11607143 C21.75,6.11607143 21.1785714,5.54464286 21.1785714,4.83928571 C21.1785714,4.13392857 21.75,3.5625 22.4553571,3.5625 Z" id="形状"></path>
                </g>
            </g>
        </g>
    </g>
</svg>